<?xml version="1.0" standalone="no"?>
<!DOCTYPE svg PUBLIC "-//W3C//DTD SVG 20010904//EN"
 "http://www.w3.org/TR/2001/REC-SVG-20010904/DTD/svg10.dtd">
<svg version="1.0" xmlns="http://www.w3.org/2000/svg"
 width="474.000000pt" height="474.000000pt" viewBox="0 0 474.000000 474.000000"
 preserveAspectRatio="xMidYMid meet">
<metadata>
Created by potrace 1.11, written by Peter Selinger 2001-2013
</metadata>
<g transform="translate(0.000000,474.000000) scale(0.100000,-0.100000)"
fill="#000000" stroke="none">
<path d="M0 2370 l0 -2370 2370 0 2370 0 0 2370 0 2370 -2370 0 -2370 0 0
-2370z m870 1970 c36 -13 69 -26 74 -31 7 -6 -55 -183 -69 -197 -2 -2 -36 8
-77 23 -46 17 -96 27 -136 28 -56 2 -66 -1 -82 -21 -34 -41 -11 -66 126 -134
204 -101 239 -143 239 -288 0 -102 -19 -146 -90 -208 -68 -60 -143 -82 -279
-82 -110 0 -151 7 -233 37 l-43 16 0 115 c0 104 2 114 18 109 9 -3 49 -18 87
-32 91 -35 222 -46 260 -21 17 11 25 25 25 46 0 35 -18 49 -161 118 -164 79
-219 152 -219 288 0 66 31 144 71 181 30 26 100 63 142 74 18 5 88 7 157 5 96
-3 140 -9 190 -26z m3360 -110 l0 -69 88 -3 87 -3 0 -95 0 -95 -88 -3 -88 -3
3 -150 c3 -137 5 -152 23 -166 20 -14 62 -13 138 3 l27 6 0 -91 0 -92 -37 -16
c-25 -11 -76 -18 -145 -21 -135 -5 -183 13 -226 86 -27 46 -27 50 -30 245 l-4
197 -44 0 -45 0 3 57 c3 57 3 58 55 93 46 31 56 44 84 113 l33 77 83 0 83 0 0
-70z m-2688 -87 c68 -24 121 -73 154 -140 24 -47 28 -72 32 -164 l5 -109 -217
0 -216 0 0 -24 c0 -38 53 -84 106 -92 60 -9 135 1 209 26 32 11 60 20 62 20 1
0 3 -42 3 -94 l0 -93 -57 -19 c-46 -15 -88 -19 -198 -19 -124 0 -146 3 -188
22 -80 37 -123 78 -159 151 -32 65 -33 70 -33 192 0 109 3 131 23 174 47 104
114 159 222 183 70 16 187 10 252 -14z m836 -3 c34 -12 62 -26 62 -31 0 -5
-16 -49 -36 -98 l-35 -89 -34 14 c-156 65 -234 25 -243 -126 -5 -91 13 -142
61 -167 41 -21 127 -12 202 22 32 14 59 25 61 25 2 0 4 -44 4 -99 0 -93 -1
-100 -24 -114 -81 -53 -281 -63 -383 -18 -117 52 -183 171 -183 330 1 253 148
390 405 376 44 -2 108 -14 143 -25z m661 23 c23 -6 23 -8 17 -77 -4 -39 -9
-92 -13 -118 l-6 -48 -53 6 c-39 5 -66 2 -99 -11 -74 -28 -79 -46 -83 -277
l-4 -198 -124 0 -124 0 0 360 0 360 94 0 95 0 17 -55 c10 -30 21 -55 26 -55 4
0 15 11 23 24 20 29 83 74 121 86 36 10 81 12 113 3z m582 -18 c63 -22 124
-76 156 -139 24 -44 28 -66 31 -163 l4 -113 -216 0 c-206 0 -216 -1 -216 -19
0 -30 46 -78 87 -92 48 -15 153 -6 228 20 33 12 63 21 68 21 4 0 6 -41 5 -92
l-3 -92 -50 -20 c-42 -17 -74 -20 -200 -21 -141 0 -153 2 -206 26 -135 64
-197 186 -186 368 3 52 13 108 26 143 23 60 82 127 135 156 81 42 239 50 337
17z m-2543 -1265 c37 -13 71 -26 76 -31 7 -6 -55 -183 -69 -197 -2 -2 -36 8
-77 23 -45 16 -97 27 -136 28 -56 2 -66 -1 -82 -21 -34 -42 -11 -66 129 -134
198 -97 250 -165 239 -311 -7 -79 -34 -133 -94 -186 -66 -58 -146 -81 -278
-81 -104 0 -160 9 -233 37 l-43 16 0 115 c0 104 2 114 18 109 9 -3 49 -18 87
-32 91 -35 222 -46 260 -21 17 11 25 25 25 46 0 35 -18 49 -161 118 -161 78
-219 152 -219 282 0 111 48 189 145 235 100 47 277 49 413 5z m2150 -112 l3
-67 82 -3 82 -3 3 -97 3 -98 -86 0 -85 0 0 -149 c0 -177 4 -187 79 -178 25 4
58 9 74 13 l27 6 0 -94 0 -94 -53 -17 c-70 -22 -214 -23 -265 -1 -101 42 -122
99 -122 340 l0 173 -42 3 -43 3 -3 52 -3 51 55 39 c47 33 59 49 90 116 l35 78
83 -3 83 -3 3 -67z m-1508 -69 c69 -15 139 -64 170 -119 25 -45 25 -47 28
-322 l3 -278 -91 0 -90 0 -22 45 -22 44 -42 -39 c-50 -46 -94 -60 -189 -60
-118 0 -188 50 -216 154 -13 49 -5 145 16 186 37 71 141 115 303 126 96 6 99
7 94 30 -11 61 -89 73 -206 30 -75 -27 -67 -32 -113 69 -36 80 -35 83 46 110
96 32 244 43 331 24z m896 -4 c61 -18 108 -60 137 -122 21 -45 22 -65 25 -320
l3 -273 -130 0 -130 0 -3 241 -3 241 -29 24 c-22 20 -35 24 -60 18 -79 -17
-89 -51 -94 -311 l-4 -213 -124 0 -124 0 0 360 0 360 94 0 93 0 18 -46 17 -46
27 24 c47 43 61 51 109 64 64 17 119 17 178 -1z m1402 -15 c60 -26 117 -86
132 -139 5 -20 10 -154 10 -298 l0 -263 -88 0 -88 0 -22 46 -23 46 -19 -25
c-11 -14 -43 -37 -72 -51 -43 -21 -66 -26 -130 -26 -88 0 -129 13 -172 56 -42
43 -59 90 -59 169 0 157 89 224 322 240 55 4 101 11 101 16 0 22 -25 59 -44
65 -38 12 -104 4 -171 -20 l-66 -24 -35 75 c-19 42 -34 81 -34 88 0 21 80 47
210 69 64 11 196 -2 248 -24z m-1161 -1259 c61 -27 136 -102 162 -164 64 -150
53 -432 -23 -562 -77 -131 -202 -185 -428 -185 l-128 0 0 103 0 102 113 0
c106 0 115 2 167 30 57 32 86 70 101 133 l8 36 -24 -31 c-32 -40 -91 -63 -162
-63 -111 0 -189 46 -234 137 -20 41 -23 63 -24 158 0 94 3 117 23 160 56 122
157 177 312 172 61 -3 100 -10 137 -26z m-622 -258 l0 -272 50 -3 50 -3 0 -95
0 -95 -52 -3 -53 -3 0 -85 0 -84 -125 0 -125 0 0 85 0 85 -177 2 -178 3 -3 96
-3 97 188 276 188 276 120 -3 120 -2 0 -272z"/>
<path d="M1336 3965 c-14 -13 -26 -28 -26 -34 0 -5 -3 -16 -6 -25 -5 -14 7
-16 95 -16 109 0 107 -2 79 56 -22 48 -100 58 -142 19z"/>
<path d="M3435 3978 c-23 -13 -37 -33 -47 -65 -6 -23 -5 -23 94 -23 87 0 99 2
94 16 -3 9 -6 20 -6 25 0 6 -12 21 -26 34 -29 27 -75 32 -109 13z"/>
<path d="M1544 2271 c-60 -37 -49 -121 16 -121 63 0 95 30 106 100 l7 40 -49
0 c-30 0 -61 -7 -80 -19z"/>
<path d="M3783 2270 c-59 -36 -42 -120 23 -120 59 0 104 48 104 110 0 29 -1
30 -47 30 -30 0 -60 -8 -80 -20z"/>
<path d="M2669 1227 c-26 -20 -39 -53 -39 -97 0 -101 72 -143 141 -82 26 23
31 35 31 69 -1 43 -13 74 -40 106 -17 20 -69 22 -93 4z"/>
<path d="M1953 1055 c-12 -22 -40 -67 -62 -100 l-41 -60 61 -3 c34 -2 63 -1
66 1 2 3 2 49 1 103 l-3 99 -22 -40z"/>
</g>
</svg>
